<svg width="120" height="25" viewBox="0 0 120 25" fill="none" xmlns="http://www.w3.org/2000/svg">
<path d="M2.40002 20.5H13.6C16.48 20.5 18.4 18.58 18.4 15.7C18.4 14.164 17.632 12.98 16.32 12.308C17.216 11.604 17.76 10.548 17.76 9.3C17.76 6.42 15.84 4.5 12.96 4.5H2.40002V20.5ZM5.60002 13.94H13.6C14.56 13.94 15.2 14.58 15.2 15.54V16.02C15.2 16.98 14.56 17.62 13.6 17.62H5.60002V13.94ZM5.60002 11.06V7.38H12.96C13.92 7.38 14.56 8.02 14.56 8.98V9.46C14.56 10.42 13.92 11.06 12.96 11.06H5.60002Z" fill="#264C51"/>
<path d="M38.2363 7.38V4.5H22.5563V20.5H38.2363V17.62H25.7563V13.94H35.0363V11.06H25.7563V7.38H38.2363Z" fill="#264C51"/>
<path d="M44.5083 20.5L45.8203 17.3H54.2683L55.5803 20.5H59.0363L52.4763 4.5H47.6763L41.1163 20.5H44.5083ZM47.0043 14.42L49.8843 7.38H50.2043L53.0843 14.42H47.0043Z" fill="#264C51"/>
<path d="M68.795 17.78C65.915 17.78 63.835 15.54 63.835 12.5C63.835 9.46 65.915 7.22 68.795 7.22C71.195 7.22 73.051 8.756 73.595 11.06H77.019C76.379 6.996 73.115 4.18 68.795 4.18C63.995 4.18 60.475 7.7 60.475 12.5C60.475 17.3 63.995 20.82 68.795 20.82C73.115 20.82 76.379 18.004 77.019 13.94H73.595C73.051 16.212 71.195 17.78 68.795 17.78Z" fill="#264C51"/>
<path d="M88.545 4.18C83.745 4.18 80.225 7.7 80.225 12.5C80.225 17.3 83.745 20.82 88.545 20.82C93.345 20.82 96.865 17.3 96.865 12.5C96.865 7.7 93.345 4.18 88.545 4.18ZM88.545 17.78C85.665 17.78 83.585 15.54 83.585 12.5C83.585 9.46 85.665 7.22 88.545 7.22C91.425 7.22 93.505 9.46 93.505 12.5C93.505 15.54 91.425 17.78 88.545 17.78Z" fill="#264C51"/>
<path d="M113.989 20.5H116.869V4.5H113.669V15.54L103.749 4.5H100.869V20.5H104.069V9.46L113.989 20.5Z" fill="#264C51"/>
</svg>
