<svg width="48" height="48" viewBox="0 0 48 48" fill="none" xmlns="http://www.w3.org/2000/svg">
<g clip-path="url(#clip0)">
<path d="M42.6001 17.14L47.0001 9.53L45.0001 7.53L39.7001 12.87L35.4401 8.62L40.7601 3.3L38.4601 1L31.0001 5.62C30.1056 6.17584 29.3732 6.95732 28.8765 7.88589C28.3797 8.81447 28.1361 9.85744 28.1701 10.91L28.2801 14.33L2.4201 40.16C2.0467 40.5317 1.75039 40.9735 1.54821 41.46C1.34602 41.9465 1.24194 42.4681 1.24194 42.995C1.24194 43.5219 1.34602 44.0435 1.54821 44.53C1.75039 45.0165 2.0467 45.4583 2.4201 45.83C2.79196 46.2049 3.23436 46.5025 3.7218 46.7056C4.20923 46.9086 4.73206 47.0132 5.2601 47.0132C5.78815 47.0132 6.31097 46.9086 6.79841 46.7056C7.28585 46.5025 7.72825 46.2049 8.1001 45.83L34.0001 20L37.1201 20.14C38.2209 20.1914 39.3147 19.9387 40.2814 19.4095C41.248 18.8803 42.0503 18.0951 42.6001 17.14V17.14Z" stroke="#B85B24" stroke-width="2" stroke-miterlimit="10"/>
<path d="M39.2899 45.68L29.3999 35.9L35.7899 29.52L45.6699 39.3C46.0902 39.7182 46.4237 40.2152 46.6512 40.7627C46.8788 41.3101 46.996 41.8971 46.996 42.49C46.996 43.0829 46.8788 43.6699 46.6512 44.2173C46.4237 44.7648 46.0902 45.2618 45.6699 45.68V45.68C44.8227 46.5239 43.6757 46.9978 42.4799 46.9978C41.2841 46.9978 40.1371 46.5239 39.2899 45.68V45.68Z" stroke="#B85B24" stroke-width="2" stroke-miterlimit="10"/>
<path d="M23.01 19.6L19.46 23.15L9.17 12.87L3.48 11.45L1 3.3L3.13 1.18L11.65 3.3L12.72 9.33L23.01 19.6Z" stroke="#B85B24" stroke-width="2" stroke-miterlimit="10"/>
<path d="M30.8199 34.49L25.1399 28.82L29.0499 24.92L34.7299 30.59L30.8199 34.49Z" stroke="#B85B24" stroke-width="2" stroke-miterlimit="10"/>
</g>
<defs>
<clipPath id="clip0">
<path d="M0 0H48V48H0V0Z" fill="white"/>
</clipPath>
</defs>
</svg>
