<svg width="48" height="48" viewBox="0 0 48 48" fill="none" xmlns="http://www.w3.org/2000/svg">
<path d="M24 47C36.7025 47 47 36.7025 47 24C47 11.2975 36.7025 1 24 1C11.2975 1 1 11.2975 1 24C1 36.7025 11.2975 47 24 47Z" stroke="#B85B24" stroke-width="2" stroke-miterlimit="10"/>
<path d="M11 37L18.8 18.8L37 11L29.2 29.2L11 37Z" stroke="#B85B24" stroke-width="2" stroke-miterlimit="10"/>
<path d="M24 26C25.1046 26 26 25.1046 26 24C26 22.8954 25.1046 22 24 22C22.8954 22 22 22.8954 22 24C22 25.1046 22.8954 26 24 26Z" fill="#B85B24"/>
</svg>
