<svg xmlns="http://www.w3.org/2000/svg" viewBox="0 0 145.14 144.96"><defs><style>.cls-1{fill:#4f9d83;}</style></defs><g id="Layer_2" data-name="Layer 2"><g id="圖層_1" data-name="圖層 1"><path class="cls-1" d="M93.49,71.63a12.64,12.64,0,1,0,12.64,12.64A12.65,12.65,0,0,0,93.49,71.63Z"/><path class="cls-1" d="M90.05,63.33a20,20,0,1,0,20,20A20.06,20.06,0,0,0,90.05,63.33ZM93.49,98.5a14.23,14.23,0,1,1,14.22-14.23A14.24,14.24,0,0,1,93.49,98.5Z"/><path class="cls-1" d="M143.27,88.52l-.39-4.22L117,87.69a30,30,0,0,0,.53-5l27.61-8.27-1.36-4-26.3,10a30.48,30.48,0,0,0-.64-4.93l27.33-15.26L142,56.5,116.27,73.16a30.5,30.5,0,0,0-1.78-4.48l25.92-22.31-2.86-3.13L113.44,66.71a31.25,31.25,0,0,0-2.65-3.88L134,33.63l-3.39-2.54L109.35,61.22a30.86,30.86,0,0,0-3.36-3.1L125.26,22.4l-3.78-1.91L104.32,56.87a30.84,30.84,0,0,0-3.88-2.21l14-41.54-4-1.26-11.82,42a29.76,29.76,0,0,0-4.17-1.33l7.67-46.37-4.2-.59L92.54,52.1a30.14,30.14,0,0,0-4.27-.44l.35-50-4.24.07,2,49.88a30.49,30.49,0,0,0-4.2.41L74.54,0,70.37.71l10,51.7a31.26,31.26,0,0,0-4,1.21l-16-52.54-4,1.32L74.8,54.3a30.21,30.21,0,0,0-3.59,1.93L46.79,4.88,43,6.79,69.77,57.18a31.28,31.28,0,0,0-3.1,2.52L34.19,11.27l-3.47,2.44L65.45,60.88a31.59,31.59,0,0,0-2.53,3L23.08,20,20,22.9,62,65.22a32.36,32.36,0,0,0-1.89,3.35L13.89,30.69,11.28,34,59.35,70a31,31,0,0,0-1.24,3.55L7,43,4.89,46.65l52.82,28.5a31.09,31.09,0,0,0-.62,3.62L2.6,56.33l-1.53,4L57,80.37c0,.52-.08,1-.08,1.55,0,.69.06,1.36.1,2L.9,70.29,0,74.43,57.16,85.51A30,30,0,0,0,57.78,89L2,84.29l-.25,4.23,56.46,1.94a28.64,28.64,0,0,0,1.13,3.23L5.72,97.81,6.15,102,60,95.1A30.8,30.8,0,0,0,61.59,98L12,110.32l1.13,4.08L62.43,99.31a30.53,30.53,0,0,0,2.06,2.6L20.63,121.36l1.83,3.82L65.52,103a29.87,29.87,0,0,0,2.4,2.24L31.2,130.52l2.51,3.42,35.45-27.73A28.53,28.53,0,0,0,71.91,108L43.33,137.46l3.14,2.85,26.79-31.5a30.42,30.42,0,0,0,3.08,1.38L56.57,141.92,60.25,144l17.58-33.3a29.13,29.13,0,0,0,3.39.91l-10.8,32.12,4.07,1.2,8.35-33.07a32,32,0,0,0,3.7.32l-2.16,30.71,4.24.12-.38-30.85a28.7,28.7,0,0,0,4-.39L98,139.4l4.1-1L94,111.46a30.34,30.34,0,0,0,4.13-1.26l12.52,23.12,3.63-2.18L99.9,109.45A30.46,30.46,0,0,0,104,107.2l18,17.65,2.84-3.15L105.64,106a30.23,30.23,0,0,0,3.67-3.3l22.11,11.6,1.81-3.84L110.77,101a31,31,0,0,0,2.87-4.22l25,5.18.69-4.18-24.65-3A29.56,29.56,0,0,0,116.45,90ZM90.05,105.68a22.32,22.32,0,1,1,22.32-22.32A22.34,22.34,0,0,1,90.05,105.68Z"/></g></g></svg>