<svg xmlns="http://www.w3.org/2000/svg" viewBox="0 0 338.4 215.09"><defs><style>.cls-1{fill:#fff;}</style></defs><g id="Layer_2" data-name="Layer 2"><g id="圖層_1" data-name="圖層 1"><path class="cls-1" d="M44,170.57a8,8,0,0,0-3.45-6.79,14.87,14.87,0,0,0-9-2.5,28.17,28.17,0,0,0-8,1.27A46.89,46.89,0,0,0,15.17,166a43.86,43.86,0,0,0-7.54,5,27.56,27.56,0,0,0-5.51,6A11.61,11.61,0,0,0,0,183.39a10.64,10.64,0,0,0,1,4.52,22.1,22.1,0,0,0,2.42,4c.92,1.21,1.85,2.34,2.75,3.34.72.83,1.33,1.57,1.81,2.2a2.53,2.53,0,0,1,.66,1.36,6,6,0,0,1-.19,1.13c-.11.68-.23,1.54-.38,2.56a25.29,25.29,0,0,0-.22,3.39c0,2.62.47,4.26,1.43,5a1.62,1.62,0,0,0,1,.35c.7,0,1.23-.46,1.57-1.35a8.64,8.64,0,0,0,.45-3,14.83,14.83,0,0,0-.5-4.06,26,26,0,0,0-.9-2.67,3.17,3.17,0,0,1-.25-.76c.15-2.63,1.18-6.2,3-10.61s3.64-8.38,5.22-11.68c1.88-3.8,1.88-4.08,1.88-4.23a.78.78,0,0,0-.21-.58.58.58,0,0,0-.43-.22c-.27,0-.62.15-1.78,1.9-.78,1.17-1.62,2.59-2.51,4.23s-1.68,3.26-2.34,4.81c-1.1,2.67-2,5.13-2.66,7.32s-1.17,3.92-1.48,5.19c-.17.68-.28,1.08-.35,1.33l-.17-.26c-.66-.93-1.42-1.9-2.26-2.89s-1.74-2.18-2.56-3.33A20.92,20.92,0,0,1,2,186.87a8.65,8.65,0,0,1-.82-3.6c0-2,.91-4.15,2.69-6.49a32.29,32.29,0,0,1,7.22-6.73,44,44,0,0,1,10.05-5.21,32.07,32.07,0,0,1,11.17-2,17.42,17.42,0,0,1,5.29.74,7.63,7.63,0,0,1,3.57,2.27,5.68,5.68,0,0,1,1.28,3.81,13,13,0,0,1-1.64,6.22,25.79,25.79,0,0,1-4.43,5.88,47,47,0,0,1-6.3,5.33,37.12,37.12,0,0,1-7.85,4.5,19.88,19.88,0,0,1-4.2,1.19,4.32,4.32,0,0,0-1.14.28.83.83,0,0,0-.51.82V194a1,1,0,0,0,.38.76,1.58,1.58,0,0,0,.51.29,2.12,2.12,0,0,0,.81.13,12.82,12.82,0,0,0,4.66-1.41A49.28,49.28,0,0,0,29.41,190a53.49,53.49,0,0,0,6.9-5.5,32.77,32.77,0,0,0,5.48-6.65A13.79,13.79,0,0,0,44,170.57ZM10.61,208.93a2.87,2.87,0,0,1-.43.67s-.15-.15-.28-.67a11.05,11.05,0,0,1-.2-2.31,23.46,23.46,0,0,1,.15-2.69c.1-.81.2-1.51.32-2.07a12.35,12.35,0,0,1,.53,1.88,15.11,15.11,0,0,1,.31,2.77A5.48,5.48,0,0,1,10.61,208.93Z"/><path class="cls-1" d="M81.69,182.15a1.45,1.45,0,0,0,.66.15,1.25,1.25,0,0,0,.94-.4,1.37,1.37,0,0,0,.36-1,1.15,1.15,0,0,0-.65-1.06,1.24,1.24,0,0,0-1.4,0,1.51,1.51,0,0,0-.6,1.28A1.07,1.07,0,0,0,81.69,182.15Z"/><path class="cls-1" d="M124.69,186.76h-.08a5.33,5.33,0,0,0-2,.69c-.85.39-1.85.79-3,1.19a9.53,9.53,0,0,1-3.2.59,2.66,2.66,0,0,1-1.66-.42,2.41,2.41,0,0,1-.78-1.08,6.46,6.46,0,0,1-.38-1.38,8.06,8.06,0,0,0-.39-1.34,1.15,1.15,0,0,0-1.15-.73,1.86,1.86,0,0,0-1,.28c-.26.16-.52.32-.78.5l-.11.08a3.3,3.3,0,0,0-.34-.89,1.25,1.25,0,0,0-1.19-.6,3.48,3.48,0,0,0-2.33,1.17,12.11,12.11,0,0,0-2,2.51,3.35,3.35,0,0,0-.2.37c-.34.37-.73.81-1.16,1.33-.94,1.1-2,2.19-3,3.25a4.1,4.1,0,0,1-2.49,1.51l-.1,0s-.05,0-.11-.12a1,1,0,0,1-.06-.46,9.25,9.25,0,0,1,.57-2.73c.4-1.2.82-2.4,1.25-3.56.36-.9.68-1.75.93-2.52a6,6,0,0,0,.4-1.73,1.18,1.18,0,0,0-.36-.88,1.31,1.31,0,0,0-.88-.39c-.7,0-1.75.66-3.28,2.09s-2.8,2.67-4.06,4l-1.45,1.44c0-.1.08-.22.13-.34.24-.6.51-1.23.83-1.88.2-.5.39-.94.56-1.34a2.55,2.55,0,0,0,.29-.91c0-.18-.07-.76-.92-.76-.5,0-1,.41-1.46,1.26a13.68,13.68,0,0,0-.86,1.92,11,11,0,0,0-2.21.68c-1.18.48-2.38,1-3.53,1.56-1,.47-1.76.85-2.33,1.13,0-.06.05-.13.07-.2.29-.67.61-1.52,1-2.52a8.38,8.38,0,0,0,.53-2.68c0-1.41-.82-1.62-1.31-1.62a3.29,3.29,0,0,0-2,.94A14.54,14.54,0,0,0,77.2,186a9.45,9.45,0,0,0-.66.87,12.18,12.18,0,0,0-1.45.59c-.85.39-1.84.79-3,1.19a9.48,9.48,0,0,1-3.19.59,2.63,2.63,0,0,1-1.66-.42,2.36,2.36,0,0,1-.79-1.08,7.89,7.89,0,0,1-.38-1.38,8.06,8.06,0,0,0-.39-1.34,1.13,1.13,0,0,0-1.15-.73,1.8,1.8,0,0,0-.95.28c-.27.16-.52.32-.78.5l-.11.08a3.72,3.72,0,0,0-.35-.89,1.25,1.25,0,0,0-1.19-.6,3.48,3.48,0,0,0-2.33,1.17,12.8,12.8,0,0,0-1.7,2.1l-.27.09c-.5.15-1.08.31-1.75.48a7.83,7.83,0,0,1-2,.25A2.69,2.69,0,0,1,51,186.61a5.33,5.33,0,0,1-.91-3.3q0-.85,0-1.17a2,2,0,0,0,0-.48c-.09-.83-.46-1-.75-1-.51,0-1.15.47-2.07,1.51s-1.74,2.05-2.7,3.34-1.85,2.52-2.65,3.66c-.45.63-.84,1.17-1.18,1.62.12-.35.26-.74.41-1.16.34-.95.66-1.86,1-2.76a7.16,7.16,0,0,0,.47-2,.78.78,0,0,0-.2-.51.87.87,0,0,0-.5-.28h-.14c-.49,0-.94.58-1.58,2a35.85,35.85,0,0,0-1.47,4,13,13,0,0,0-.66,3.32,1.49,1.49,0,0,0,.34,1.1.87.87,0,0,0,.32.2,1.17,1.17,0,0,0,.3.05c.3,0,.78-.2,2.54-2.55,1.18-1.58,2.44-3.31,3.74-5.14.88-1.27,1.66-2.36,2.33-3.25l.37-.48a5.74,5.74,0,0,0,0,.6,6.6,6.6,0,0,0,.43,2.27,4.41,4.41,0,0,0,1.49,2c1.14.86,2.92,1,5.24.49l1.2-.3a3.56,3.56,0,0,0-.3,1.26v.12a1.24,1.24,0,0,0,.32.8,1.18,1.18,0,0,0,.91.43,2.91,2.91,0,0,0,1.57-.7c.58-.42,1.13-.85,1.63-1.27.15-.14.29-.25.41-.35a.54.54,0,0,0,.05.21l.15.22h.2c.28,0,.54-.2,1-1.26a3.58,3.58,0,0,1,1-1.31,1.72,1.72,0,0,1,1-.51.24.24,0,0,1,0,.12,4.92,4.92,0,0,0,1,3.3,4.07,4.07,0,0,0,3.2,1.15,12.19,12.19,0,0,0,4-.74A25.68,25.68,0,0,0,76,188.37c.46-.24.77-.41,1-.55a.64.64,0,0,0,.25-.15c.34-.21.36-.29.36-.41a9.79,9.79,0,0,1,1.61-1.82c.85-.72,1.27-.82,1.49-.82h0a.29.29,0,0,1,0,.14,8.79,8.79,0,0,1-.57,2.47,23.42,23.42,0,0,1-1.42,3.34,7.7,7.7,0,0,1-1.59,2.24,42.9,42.9,0,0,0-9,10.36c-2.59,4.11-3.9,7.33-3.9,9.59a3,3,0,0,0,.2,1.23,2.08,2.08,0,0,0,.5.71,1.36,1.36,0,0,0,.49.29,1,1,0,0,0,.47.1c1.57,0,4.6-2,12.68-19.66l.32-.71c.39-.88.7-1.53.94-1.95a3,3,0,0,1,.8-.92,14.78,14.78,0,0,1,1.54-.95l.58-.31a32.26,32.26,0,0,1,5.75-2.52,8.06,8.06,0,0,0-.33,2v.2c0,1.11.72,1.23,1,1.23s.66-.14,1.72-1.18c.75-.73,1.6-1.6,2.52-2.58,1.15-1.2,2.27-2.32,3.32-3.33A6.67,6.67,0,0,1,98.62,183c-.07.21-.22.58-.53,1.25-.53,1.17-1.09,2.57-1.68,4.18a13,13,0,0,0-.9,4.37,4,4,0,0,0,.27,1.39,1.44,1.44,0,0,0,1.51.91,4.59,4.59,0,0,0,2.8-1.24,21,21,0,0,0,2.72-2.7c.29-.34.54-.66.79-1a1.52,1.52,0,0,0,.24.4,1.2,1.2,0,0,0,.92.43,2.89,2.89,0,0,0,1.56-.7c.59-.42,1.13-.85,1.64-1.27l.4-.35a.53.53,0,0,0,.06.21l.15.22h.2c.28,0,.54-.2,1-1.26a3.7,3.7,0,0,1,1-1.31,1.74,1.74,0,0,1,1-.51.45.45,0,0,1,0,.12,4.87,4.87,0,0,0,1,3.3,4,4,0,0,0,3.19,1.15,12.19,12.19,0,0,0,4-.74,25.86,25.86,0,0,0,3.53-1.52c1.61-.86,1.61-.9,1.61-1.13a.48.48,0,0,0-.14-.35A.43.43,0,0,0,124.69,186.76Zm-15.94-.38c0,.13-.11.24-.2.31a10.8,10.8,0,0,1-1.22.66l-1,.47c.18-.22.4-.45.64-.69a6.06,6.06,0,0,1,1.12-.9,1.44,1.44,0,0,1,.64-.24A3.15,3.15,0,0,1,108.75,186.38ZM75.59,196l1-.93c-.21.45-.52,1.09-1,2-1,2-2.11,4.24-3.41,6.71s-2.59,4.69-3.8,6.62c-1.58,2.5-2.16,2.72-2.29,2.74a1.19,1.19,0,0,1-.08-.54,13.36,13.36,0,0,1,1.67-6.18,37.74,37.74,0,0,1,3.9-6A44.82,44.82,0,0,1,75.59,196Zm-14.51-9.9a.45.45,0,0,1-.13.36,10.48,10.48,0,0,1-1,.91l-.87.67c.13-.26.29-.54.47-.83a6.15,6.15,0,0,1,.88-1.13,1.14,1.14,0,0,1,.56-.36A3.09,3.09,0,0,1,61.08,186.13Z"/><path class="cls-1" d="M156.51,182.52a1.24,1.24,0,0,0-.5-.32,2.31,2.31,0,0,0-.81-.12,19.69,19.69,0,0,0-3.65.59,40,40,0,0,0-4.88,1.45c-1.62.62-2.49,1.21-2.74,1.86l0,.2a.67.67,0,0,0,.23.54.73.73,0,0,0,.54.17,2,2,0,0,0,.94-.4,8.17,8.17,0,0,1,1.07-.48l1.75-.67c.62-.23,1.17-.43,1.64-.58l.33-.11a9.23,9.23,0,0,1-1.35,2.36,36.3,36.3,0,0,1-3.7,4.35,31.27,31.27,0,0,1-4.71,3.93,8.14,8.14,0,0,1-4.4,1.61c-1.44,0-2.11-.68-2.11-2.15a6.48,6.48,0,0,1,1.41-3.88,23.22,23.22,0,0,1,3.53-3.74c1.4-1.2,2.8-2.3,4.17-3.29s2.42-1.85,3.32-2.63S148,179.65,148,179a2.42,2.42,0,0,0-1.37-2,24.28,24.28,0,0,0-2.8-1.5,22.8,22.8,0,0,1-2.28-1.16c-.55-.33-.82-.66-.82-1,0-.14.12-.54,1.26-1.15a17.27,17.27,0,0,1,3.32-1.31,12.24,12.24,0,0,1,3.37-.56c3,.11,3,1.2,3,1.56a2.26,2.26,0,0,1-.67,1.61,13.79,13.79,0,0,1-1.57,1.41q-.48.39-.81.69a1.07,1.07,0,0,0-.45.78.82.82,0,0,0,.28.63,1,1,0,0,0,.52.16,2.94,2.94,0,0,0,1.72-.88,9.55,9.55,0,0,0,1.79-2,4.1,4.1,0,0,0,.83-2.29,2.48,2.48,0,0,0-1.19-2.2,5.75,5.75,0,0,0-3.11-.72,15.16,15.16,0,0,0-2.49.28,25.38,25.38,0,0,0-3.23.8,12,12,0,0,0-2.83,1.27,2.34,2.34,0,0,0-1.29,1.95,2.43,2.43,0,0,0,.76,1.7,8,8,0,0,0,1.72,1.33c.66.4,1.33.77,2,1.11s1.28.69,1.74,1,.56.53.56.57,0,.22-.74.79-1.32,1-2.23,1.66-2.14,1.61-3.35,2.54a34.91,34.91,0,0,0-3.46,3.08,19.34,19.34,0,0,0-2.72,3.5,7.45,7.45,0,0,0-1.1,3.8,4,4,0,0,0,.72,2.61,3.33,3.33,0,0,0,1.64,1.13,5.08,5.08,0,0,0,1.34.25,9.57,9.57,0,0,0,5.1-1.89,35.66,35.66,0,0,0,5.32-4.36,41.82,41.82,0,0,0,4.2-4.8c1.54-2.1,1.71-2.88,1.71-3.28V184l.09,0a13.37,13.37,0,0,1,2.18-.23h1.14c.61,0,.94-.19,1-.56v-.08a1.42,1.42,0,0,0,0-.21A.87.87,0,0,0,156.51,182.52Z"/><path class="cls-1" d="M203.09,181c1.06-3.59,2.09-7.25,3.07-10.9a37.67,37.67,0,0,0,1.51-7.2,2.66,2.66,0,0,0-.24-1.21,1.79,1.79,0,0,0-.55-.69,1.62,1.62,0,0,0-.63-.27,2.51,2.51,0,0,0-.4,0c-1.72,0-4.22,2.11-7.63,6.45a154.59,154.59,0,0,0-11.53,17.73c-.19.32-.35.62-.48.88a9.6,9.6,0,0,1-.74,1.21,1,1,0,0,1-.57.4,6.89,6.89,0,0,1-1.34.14c-.26,0-.56.06-.9.08-5.78.5-10.27,2-13.36,4.38a11.71,11.71,0,0,0-4.71,9.71,11.38,11.38,0,0,0,.85,4.68,6.55,6.55,0,0,0,2.18,2.76,4.7,4.7,0,0,0,2.64.91c2,0,3.91-1.35,5.77-4s4.54-7.2,8.13-13.77a8.25,8.25,0,0,1,1.75-2.51,4.63,4.63,0,0,1,3-.69c.49,0,1.27,0,2.32.12s2.15.17,3.29.29l2.92.33.91.14c-.06.33-.21,1.07-.63,2.68-.56,2.06-1.14,4.53-1.74,7.33a37.29,37.29,0,0,0-.91,7.54,4.75,4.75,0,0,0,.6,2.81,1,1,0,0,0,.83.47h.15c.9-.09,1-.59,1-.87a1,1,0,0,0-.13-.54,3.33,3.33,0,0,0-.29-.32.77.77,0,0,1-.14-.17,2,2,0,0,1-.18-.52,4.74,4.74,0,0,1-.09-1.05,25.53,25.53,0,0,1,.53-4.24c.35-1.9.78-3.85,1.27-5.8s1-3.68,1.43-5.07a8.41,8.41,0,0,1,.75-1.89h.08a3.16,3.16,0,0,0,1,.1.85.85,0,0,0,.67-.34,1,1,0,0,0,.2-.31.92.92,0,0,0,.09-.39,1,1,0,0,0-.57-1,3,3,0,0,0-.84-.21l-.27,0c0-.22.17-.77.55-2.12S202.54,183,203.09,181ZM206,162.59a11.44,11.44,0,0,1-.5,2.78c-.34,1.22-.81,2.79-1.45,4.78-1.22,3.77-2.9,9.65-5,17.51a.34.34,0,0,1-.09.17l-.14.07h-.19c-.42-.13-2-.32-8.85-.55a16.88,16.88,0,0,1-2.14-.1c-.06,0-.36-.06-.37-.16a16.73,16.73,0,0,1,1.49-2.89c1-1.78,2.32-3.93,3.89-6.4s3.23-4.92,5-7.32a63.57,63.57,0,0,1,4.89-6.06c1.82-2,2.81-2.37,3.36-2.37C205.91,162.05,206,162.32,206,162.59Zm-22.29,27.69a.29.29,0,0,0-.1.16h-.14v.21l-.08.14v0c-.75,1.35-1.72,3-2.86,4.93s-2.44,4-3.75,5.92a46.24,46.24,0,0,1-3.76,5c-1.42,1.6-2.28,1.94-2.75,1.94a3.44,3.44,0,0,1-2.85-1.79,9,9,0,0,1-1.3-5.08,10.35,10.35,0,0,1,1.7-6.09,12.86,12.86,0,0,1,4.47-3.89,21.49,21.49,0,0,1,6-2.09,32.07,32.07,0,0,1,6.07-.62Z"/><path class="cls-1" d="M338,186.76h-.12l-.13,0c-.24.11-.59.29-1.09.57a41,41,0,0,1-3.75,1.81,16.68,16.68,0,0,1-4.67,1.26l-.5,0c-1.93,0-2.16-.95-2.16-1.61.09-.88.4-.88.5-.88a5.22,5.22,0,0,0,3.37-1,2.91,2.91,0,0,0,1.32-2.2,1.78,1.78,0,0,0-.07-.47,1.07,1.07,0,0,0-.46-.62c-.59-.42-1.92-.33-3.4.43a7.5,7.5,0,0,0-2.32,1.85,4.15,4.15,0,0,0-.76,1.24c-.42.24-1,.6-1.94,1.19-2,1.27-4.39,2.64-7.1,4.08a18.21,18.21,0,0,1-6.76,2.32,1.8,1.8,0,0,1-1.21-.36,1.78,1.78,0,0,1-.39-1.36,10.48,10.48,0,0,1,1.39-4.75,19.46,19.46,0,0,1,3.42-4.69,5.43,5.43,0,0,1,3.59-2h.12a.54.54,0,0,1,.39.18.51.51,0,0,1,.18.4v.11a2.38,2.38,0,0,1-.38,1.34,10.21,10.21,0,0,1-.86,1.19,2.54,2.54,0,0,0-.88,1.6.72.72,0,0,0,.15.46.55.55,0,0,0,.26.26c.44.23.93,0,1.52-.66a7,7,0,0,0,1.07-1.65,4.67,4.67,0,0,0,.48-2,2.7,2.7,0,0,0-.58-1.78,2.12,2.12,0,0,0-1.75-.75,6.94,6.94,0,0,0-4.34,2,18.74,18.74,0,0,0-3.92,4.79c-.12.21-.22.41-.32.62-.34.37-.71.8-1.14,1.31-.94,1.1-2,2.19-3,3.25a4.14,4.14,0,0,1-2.5,1.51l-.09,0s-.06,0-.11-.12-.07-.09-.07-.46a9.33,9.33,0,0,1,.58-2.73c.4-1.2.82-2.4,1.25-3.56.36-.9.67-1.75.93-2.52a6.21,6.21,0,0,0,.39-1.73,1.21,1.21,0,0,0-.35-.88,1.33,1.33,0,0,0-.88-.39c-.71,0-1.75.66-3.29,2.09s-2.8,2.67-4.06,4l-1.44,1.44c0-.1.08-.22.13-.34.23-.6.51-1.23.82-1.88l.57-1.34a2.42,2.42,0,0,0,.28-.91c0-.18-.07-.76-.91-.76-.5,0-1,.41-1.47,1.26a13,13,0,0,0-.88,2,11.68,11.68,0,0,0-1.37.56c-.85.39-1.84.79-3,1.19a9.48,9.48,0,0,1-3.19.59,2.68,2.68,0,0,1-1.67-.42,2.41,2.41,0,0,1-.78-1.08,7.1,7.1,0,0,1-.38-1.38,8.06,8.06,0,0,0-.39-1.34,1.15,1.15,0,0,0-1.15-.73,1.8,1.8,0,0,0-.95.28c-.27.16-.52.32-.78.5l-.12.08a3.3,3.3,0,0,0-.34-.89,1.25,1.25,0,0,0-1.19-.6,3.48,3.48,0,0,0-2.33,1.17,12.11,12.11,0,0,0-2,2.51,8,8,0,0,0-.55,1.09l-.25.37c-.91,1.4-2,3-3.31,4.87s-2.6,3.57-3.82,5.05c-1.52,1.85-2.2,2.12-2.46,2.12-.09,0-.23-.27-.23-1a28.94,28.94,0,0,1,2.07-9c1.38-3.85,3-7.78,4.71-11.7s3.29-7.28,4.59-9.95c1.88-4,1.88-4.18,1.88-4.31a1,1,0,0,0-.21-.62.88.88,0,0,0-.59-.34c-.48,0-1.28.35-3.21,3.11-1.38,2-2.88,4.28-4.46,6.88s-3,4.93-4.21,7c-.7,1.21-1.27,2.17-1.71,2.89-.21.36-.36.59-.46.74a1.52,1.52,0,0,0-1.08-.45h-.24a3.61,3.61,0,0,0-2.8,1.27,7.51,7.51,0,0,0-1.21,2l-.1.1c-.38.41-.84.94-1.37,1.56-.94,1.1-1.94,2.19-3,3.25a4.1,4.1,0,0,1-2.49,1.51l-.1,0s0,0-.11-.12a1,1,0,0,1-.06-.46,9.25,9.25,0,0,1,.57-2.73c.4-1.2.82-2.4,1.25-3.56.36-.9.67-1.75.93-2.52a5.86,5.86,0,0,0,.39-1.73,1.21,1.21,0,0,0-.35-.88,1.33,1.33,0,0,0-.88-.39c-.7,0-1.75.66-3.29,2.09s-2.8,2.67-4.06,4l-1.44,1.44c0-.1.08-.22.13-.34.23-.6.51-1.23.82-1.88l.57-1.34a2.42,2.42,0,0,0,.28-.91c0-.18-.06-.76-.91-.76-.5,0-1,.41-1.46,1.26a13,13,0,0,0-1.11,2.6c-.05.14-.06.26-.1.39l-.26.34c-.65.84-1.44,1.81-2.35,2.88s-1.8,2-2.64,2.85c-1,1-1.49,1.16-1.67,1.16h-.12c-.06,0-.11,0-.11-.22a11.58,11.58,0,0,1,.81-3.57c.54-1.55,1.1-3,1.64-4.41a10,10,0,0,0,1.05-3.11.6.6,0,0,0-.25-.51.67.67,0,0,0-.27-.21l-.08,0-.16,0c-.22,0-.52.15-1.26.86-.54.51-1.19,1.15-1.92,1.91-1.18,1.21-2.39,2.37-3.58,3.47-1.52,1.38-2.18,1.59-2.44,1.59,0,0-.11,0-.11-.27a5.48,5.48,0,0,1,.44-1.79c.3-.8.58-1.51.83-2.12a3.56,3.56,0,0,0,.46-1.24.6.6,0,0,0-.37-.57,1.09,1.09,0,0,0-.42-.11c-.46,0-.91.32-1.37,1a7.32,7.32,0,0,0-.59,1,18.27,18.27,0,0,0-4.16.58c-1.27.31-2.16.54-2.74.7a12.76,12.76,0,0,0,.57-3.3c0-2.31-1.05-2.8-1.94-2.8a4.55,4.55,0,0,0-3,1.75,33.55,33.55,0,0,0-3,3.59c-.65.9-1.16,1.64-1.56,2.24a9.27,9.27,0,0,1,.28-1.06,2.42,2.42,0,0,1,.69-1.1,21.16,21.16,0,0,0,4.46-5.72,60,60,0,0,0,3.91-8.08,19.08,19.08,0,0,0,1.66-6.35c0-1.44-.63-1.75-1.16-1.75-1,0-2.1,1-3.47,3.14a56.88,56.88,0,0,0-3.9,7.26,77.48,77.48,0,0,0-3.26,8.37,23.19,23.19,0,0,0-1.33,6.49,3.3,3.3,0,0,0,.27,1.47c.22.41.49.63.8.63s.59-.26,1-.91.82-1.15,1.35-1.91c.66-1,1.38-2,2.11-3a21.11,21.11,0,0,1,2.27-2.63,2.9,2.9,0,0,1,1.83-1,.21.21,0,0,1,.22.14,1.7,1.7,0,0,1,.13.67c0,.07,0,.32-.14,1.26a9.13,9.13,0,0,1-.57,2.18,2.69,2.69,0,0,1-1.24,1.5,17.73,17.73,0,0,0-5,3.67c-1.45,1.53-2.16,2.79-2.16,3.86a1.89,1.89,0,0,0,.5,1.22,1.66,1.66,0,0,0,1.13.48h.12c2,0,4.29-2.34,7-7.14a1.41,1.41,0,0,0,.14-.27,5.26,5.26,0,0,1,.64-1,1.68,1.68,0,0,1,.74-.43,46.14,46.14,0,0,1,6.41-1.72h0l0,.08A6.53,6.53,0,0,0,222,190a2.31,2.31,0,0,0,.52,1.6c.89,1,2,.7,3.58-.49a29.51,29.51,0,0,0,2.75-2.35c.94-.9,1.7-1.66,2.34-2.33-.4.88-.87,2-1.4,3.27a12.68,12.68,0,0,0-1.06,4.55,2.66,2.66,0,0,0,.23,1.24,2.06,2.06,0,0,0,.52.7,1.22,1.22,0,0,0,.57.3,1.64,1.64,0,0,0,.3,0,4.24,4.24,0,0,0,2.5-1.34,27.07,27.07,0,0,0,2.84-3c.59-.69,1.1-1.35,1.57-2,0,1.11.72,1.23,1,1.23s.67-.14,1.73-1.18c.74-.73,1.59-1.6,2.52-2.58,1.15-1.2,2.27-2.32,3.31-3.33a6.81,6.81,0,0,1,1.8-1.39c-.07.21-.22.58-.53,1.25-.53,1.17-1.1,2.57-1.68,4.18a13,13,0,0,0-.91,4.37,4,4,0,0,0,.28,1.39,1.42,1.42,0,0,0,1.5.91,4.61,4.61,0,0,0,2.81-1.24,20.93,20.93,0,0,0,2.71-2.7c.33-.39.62-.75.9-1.11a8.21,8.21,0,0,0-.1,1.06c0,1.34.35,2,1,2a2.92,2.92,0,0,0,2-1.23,24.56,24.56,0,0,0,1.93-2.47c.6-.88,1.07-1.61,1.39-2.17,0,0,0,0,0,0l0,0c.22.33.44.3.6.23h.09l.09-.11a.47.47,0,0,0,.13-.38,1.33,1.33,0,0,0-.05-.36.85.85,0,0,1,0-.23l0-.1c-.05-.15-.05-.22-.06-.22a24.52,24.52,0,0,1,1.71-3.07c1.18-2,2.54-4.19,4-6.58q1.49-2.35,2.78-4.38c-1.1,2.22-2.32,4.81-3.63,7.73-1.55,3.48-2.94,7-4.14,10.51a28.73,28.73,0,0,0-1.8,8.77v.2c0,1.38.3,2.28,1,2.77a2,2,0,0,0,.88.19c.74,0,1.73-.73,3.09-2.29a60.45,60.45,0,0,0,3.92-5c1.1-1.58,2.06-3,2.92-4.35h0a1.18,1.18,0,0,0,.91.43,2.91,2.91,0,0,0,1.57-.7c.58-.42,1.13-.85,1.63-1.27.15-.14.29-.25.41-.35a.41.41,0,0,0,0,.21l.15.22h.2c.28,0,.54-.2,1-1.26a3.82,3.82,0,0,1,1-1.31,1.77,1.77,0,0,1,1-.51.24.24,0,0,1,0,.12,4.92,4.92,0,0,0,1,3.3,4.05,4.05,0,0,0,3.2,1.15,12.24,12.24,0,0,0,4-.74,27.29,27.29,0,0,0,3.5-1.51,8.06,8.06,0,0,0-.24,1.69v.2c0,1.11.72,1.23,1,1.23s.67-.14,1.72-1.18c.75-.73,1.6-1.6,2.53-2.58,1.15-1.2,2.26-2.32,3.31-3.33a6.81,6.81,0,0,1,1.8-1.39c-.08.21-.23.58-.54,1.25-.53,1.17-1.09,2.57-1.67,4.18a12.74,12.74,0,0,0-.91,4.37,3.82,3.82,0,0,0,.28,1.39,1.42,1.42,0,0,0,1.5.91,4.59,4.59,0,0,0,2.8-1.24,21,21,0,0,0,2.72-2.7l.19-.22a8.3,8.3,0,0,0-.18,1.63,4,4,0,0,0,.48,2,2.84,2.84,0,0,0,1.51,1.26,3.37,3.37,0,0,0,1.09.18,13.06,13.06,0,0,0,4.89-1.27,58.22,58.22,0,0,0,5.75-2.88c1.89-1.09,3.51-2.09,4.82-3l.38-.26a3.76,3.76,0,0,0,.32,1.48,2.91,2.91,0,0,0,1.14,1.31,4.18,4.18,0,0,0,2.28.52h.38a14.73,14.73,0,0,0,4.68-1.21,30.35,30.35,0,0,0,4.24-2.14c1.92-1.2,1.92-1.28,1.92-1.5S338.24,186.76,338,186.76Zm-9.13-.91a3.73,3.73,0,0,1-1.37.67l-.63.14a1.94,1.94,0,0,1,.2-.3,4.85,4.85,0,0,1,1.06-1,1.9,1.9,0,0,1,1.06-.41A.86.86,0,0,1,328.83,185.85Zm-53.45.13a.56.56,0,0,1-.15.42,11.1,11.1,0,0,1-1.15,1.08c-.4.33-.72.6-1,.8a10.85,10.85,0,0,1,.54-1,7.66,7.66,0,0,1,1-1.34,1.4,1.4,0,0,1,.62-.43A3.72,3.72,0,0,1,275.38,186ZM258,185.67a4.21,4.21,0,0,1-.52,1.15c-.35.62-.76,1.27-1.22,2s-.9,1.27-1.3,1.74l-.23.27a12.3,12.3,0,0,1,.31-2,5.37,5.37,0,0,1,1.38-2.43,2.14,2.14,0,0,1,1.44-.79.21.21,0,0,1,.11,0Zm-49.08-3c.76-2,1.69-4.23,2.77-6.6s2.11-4.44,3.13-6.21a8,8,0,0,1,1.75-2.4,16.06,16.06,0,0,1-1.24,5.25,53.78,53.78,0,0,1-2.93,6.31,51.47,51.47,0,0,1-3.16,5.16,13.24,13.24,0,0,1-1.38,1.7A26.88,26.88,0,0,1,208.92,182.71Zm2.68,8.7c.54-.34.92-.57,1.18-.71-.08.14-.17.31-.3.52a22.76,22.76,0,0,1-1.59,2.35,20.46,20.46,0,0,1-2,2.26,2.55,2.55,0,0,1-1.58.91h0c-.06,0-.08,0-.08,0l-.07-.08a4,4,0,0,1,1.4-2.76A17.58,17.58,0,0,1,211.6,191.41Z"/><path class="cls-1" d="M186.3,71.63a12.64,12.64,0,1,0,12.64,12.64A12.65,12.65,0,0,0,186.3,71.63Z"/><path class="cls-1" d="M182.87,63.33a20,20,0,1,0,20,20A20.06,20.06,0,0,0,182.87,63.33ZM186.3,98.5a14.23,14.23,0,1,1,14.22-14.23A14.25,14.25,0,0,1,186.3,98.5Z"/><path class="cls-1" d="M236.08,88.52l-.39-4.22-25.88,3.39a30,30,0,0,0,.53-5L238,74.37l-1.36-4-26.3,10a30.48,30.48,0,0,0-.64-4.93L237,60.13l-2.19-3.63L209.08,73.16a30.5,30.5,0,0,0-1.78-4.48l25.92-22.31-2.86-3.13L206.25,66.71a31.25,31.25,0,0,0-2.65-3.88l23.23-29.2-3.39-2.54L202.16,61.22a30.86,30.86,0,0,0-3.36-3.1L218.07,22.4l-3.78-1.91L197.13,56.87a30.84,30.84,0,0,0-3.88-2.21l14-41.54-4-1.26-11.82,42a29.76,29.76,0,0,0-4.17-1.33l7.67-46.37-4.2-.59L185.35,52.1a30,30,0,0,0-4.27-.44l.35-50-4.24.07,2,49.88a30.34,30.34,0,0,0-4.19.41L167.36,0l-4.18.71,10,51.7a31.77,31.77,0,0,0-4,1.21l-16-52.54-4,1.32,18.4,51.9A29.32,29.32,0,0,0,164,56.23L139.61,4.88l-3.79,1.91,26.76,50.39a31.28,31.28,0,0,0-3.1,2.52L127,11.27l-3.47,2.44,34.73,47.17a30.08,30.08,0,0,0-2.52,3L115.89,20l-3.07,2.91,41.94,42.32a32.36,32.36,0,0,0-1.89,3.35L106.71,30.69,104.09,34l48.07,36a29.19,29.19,0,0,0-1.23,3.55L99.79,43,97.7,46.65l52.82,28.5a31.09,31.09,0,0,0-.62,3.62L95.41,56.33l-1.52,4,55.93,20.08c0,.52-.08,1-.08,1.55,0,.69.06,1.36.1,2L93.72,70.29l-.91,4.14L150,85.51a30,30,0,0,0,.62,3.45L94.77,84.29l-.25,4.23L151,90.46a28.64,28.64,0,0,0,1.13,3.23L98.53,97.81,99,102l53.82-6.92A30.8,30.8,0,0,0,154.4,98l-49.57,12.29L106,114.4l49.29-15.09a28.56,28.56,0,0,0,2.05,2.6l-43.86,19.45,1.83,3.82L158.33,103a29.87,29.87,0,0,0,2.4,2.24L124,130.52l2.51,3.42L162,106.21a29.83,29.83,0,0,0,2.75,1.83l-28.58,29.42,3.14,2.85,26.79-31.5a31.45,31.45,0,0,0,3.08,1.38l-19.77,31.73,3.68,2.11,17.58-33.3a29.67,29.67,0,0,0,3.39.91l-10.8,32.12,4.07,1.2,8.35-33.07a32,32,0,0,0,3.7.32l-2.15,30.71,4.23.12-.38-30.85a29,29,0,0,0,4-.39l5.74,27.6,4.1-1-8.07-26.9a29.92,29.92,0,0,0,4.13-1.26l12.52,23.12,3.64-2.18-14.38-21.69a30.46,30.46,0,0,0,4.08-2.25l18,17.65,2.84-3.15L198.45,106a30.23,30.23,0,0,0,3.67-3.3l22.11,11.6,1.81-3.84L203.58,101a31,31,0,0,0,2.87-4.22l25,5.18.69-4.18-24.65-3A29.56,29.56,0,0,0,209.26,90Zm-53.21,17.16a22.32,22.32,0,1,1,22.31-22.32A22.34,22.34,0,0,1,182.87,105.68Z"/></g></g></svg>