<svg width="97" height="95" viewBox="0 0 97 95" fill="none" xmlns="http://www.w3.org/2000/svg">
<path d="M39.5691 86.3287L33.4992 84.177C31.9383 83.6237 30.5289 84.2954 29.9756 85.8562C29.6805 86.6887 29.8693 87.4779 30.4512 88.0942C29.8304 88.3036 29.3327 88.7714 29.0929 89.4477C28.5396 91.0085 29.2113 92.418 30.7722 92.9713L36.4952 95L39.5691 86.3287ZM36.5745 89.2692L32.2389 87.7322C31.7186 87.5478 31.4947 87.078 31.6791 86.5577L31.7714 86.2976C31.9558 85.7773 32.4256 85.5534 32.9459 85.7378L37.2815 87.2748L36.5745 89.2692ZM36.0212 90.83L35.3142 92.8244L31.3255 91.4104C30.8052 91.226 30.5813 90.7562 30.7657 90.2359L30.8579 89.9758C31.0424 89.4555 31.5122 89.2316 32.0324 89.416L36.0212 90.83Z" fill="#264C51"/>
<path d="M13.1419 78.8595L12.0043 80.0628L18.5559 86.2567L24.8762 79.5713L18.3245 73.3774L17.1869 74.5808L22.4015 79.5106L20.9478 81.0483L17.0703 77.3825L15.9326 78.5859L19.8102 82.2516L18.3565 83.7893L13.1419 78.8595Z" fill="#264C51"/>
<path d="M13.7415 66.4105L11.7529 66.4258L9.87562 61.9456L11.2811 60.5387L10.5131 58.7059L3.48569 65.7403L4.55233 68.2859L14.4953 68.2093L13.7415 66.4105ZM9.96248 66.4379L5.58901 66.4749L5.5179 66.3052L8.6114 63.2135L9.96248 66.4379Z" fill="#264C51"/>
<path d="M7.81956 47.6724C7.78665 49.3281 6.47515 50.4983 4.72749 50.4635C2.97984 50.4288 1.71586 49.2075 1.74876 47.5518C1.77618 46.1721 2.68041 45.1226 4.01116 44.8362L4.05028 42.8678C1.70663 43.1893 0.0504644 45.0335 0.00110967 47.5171C-0.053729 50.2765 1.92965 52.3403 4.68911 52.3952C7.44856 52.45 9.51237 50.4666 9.56721 47.7072C9.61656 45.2237 8.03498 43.3151 5.70595 42.9007L5.66683 44.8691C6.96676 45.2078 7.84698 46.2927 7.81956 47.6724Z" fill="#264C51"/>
<path d="M4.40125 28.0666C3.23432 30.5677 4.21275 33.2577 6.71392 34.4246C9.21509 35.5916 11.905 34.6131 13.072 32.112C14.2389 29.6108 13.2605 26.9208 10.7593 25.7539C8.25813 24.587 5.56819 25.5654 4.40125 28.0666ZM11.4879 31.3729C10.7877 32.8736 9.11485 33.4129 7.53077 32.6738C5.9467 31.9347 5.28516 30.3063 5.98533 28.8056C6.68549 27.3049 8.35837 26.7657 9.94245 27.5047C11.5265 28.2438 12.1881 29.8722 11.4879 31.3729Z" fill="#264C51"/>
<path d="M24.906 17.0442L26.1661 15.9698L20.1971 8.96902L18.7969 10.1628L22.9155 14.9933L14.4564 13.8636L13.1963 14.9381L19.1653 21.9388L20.5655 20.745L16.4469 15.9145L24.906 17.0442Z" fill="#264C51"/>
<path d="M40.7472 2.18534L44.421 1.97249L44.8573 9.50385L46.6943 9.39743L46.2579 1.86607L49.9318 1.65323L49.836 0L40.6514 0.53211L40.7472 2.18534Z" fill="#264C51"/>
<path d="M68.1359 6.10089L68.6994 4.54372L60.2214 1.47569L57.0908 10.1266L65.5687 13.1947L66.1323 11.6375L59.3845 9.1956L60.1046 7.20588L65.1221 9.02165L65.6856 7.46448L60.6681 5.64871L61.3881 3.65899L68.1359 6.10089Z" fill="#264C51"/>
<path d="M79.3932 11.5223L78.2107 10.363L71.7702 16.9327L73.0842 18.2207L77.5925 13.622L77.6188 13.6477C77.6188 13.6477 77.338 14.197 77.2653 14.7442L76.9743 16.881L78.2882 18.169L80.4188 17.8356C80.9644 17.7521 81.508 17.4605 81.508 17.4605L81.5343 17.4862L77.026 22.085L78.3399 23.3731L84.7803 16.8034L83.5978 15.6441L78.8431 16.394L78.7511 16.3038L79.3932 11.5223Z" fill="#264C51"/>
<path d="M86.9724 30.335L88.6894 34.8003C89.2838 36.3459 90.6933 36.9868 92.1702 36.4188C93.7159 35.8245 94.3501 34.3978 93.7558 32.8522L91.3784 26.6695L82.7914 29.9714L83.4517 31.6888L86.9724 30.335ZM90.4931 28.9812L92.2101 33.4465C92.4082 33.9617 92.1968 34.4373 91.6816 34.6354L91.424 34.7345C90.9088 34.9326 90.4332 34.7212 90.2351 34.2059L88.5181 29.7407L90.4931 28.9812Z" fill="#264C51"/>
<path d="M87.1127 45.5461L86.9183 52.9035L88.5737 52.9473L88.7195 47.4292L96.2609 47.6285L96.3095 45.7892L87.1127 45.5461Z" fill="#264C51"/>
<path d="M85.0735 60.8524L86.4461 62.2915L84.4656 66.727L82.4779 66.6657L81.6677 68.4802L91.6062 68.7869L92.7314 66.2667L85.8687 59.0715L85.0735 60.8524ZM87.6806 63.5883L90.7017 66.7508L90.6267 66.9188L86.2552 66.7805L87.6806 63.5883Z" fill="#264C51"/>
<path d="M83.1813 79.0135L80.478 81.5105L75.3592 75.9689L74.0076 77.2174L79.1264 82.759L76.4232 85.256L77.5469 86.4724L84.3049 80.23L83.1813 79.0135Z" fill="#264C51"/>
<path d="M59.535 93.3777L60.0883 94.9385L68.5862 91.9261L65.5123 83.2549L57.0144 86.2672L57.5677 87.8281L64.3313 85.4305L65.0383 87.4249L60.009 89.2077L60.5623 90.7685L65.5916 88.9857L66.2986 90.9801L59.535 93.3777Z" fill="#264C51"/>
<path d="M34.405 60.1589H53.081C57.8834 60.1589 61.085 57.1781 61.085 52.707C61.085 50.3223 59.8043 48.4842 57.6166 47.4409C59.1107 46.3479 60.0178 44.7085 60.0178 42.771C60.0178 38.2998 56.8162 35.319 52.0138 35.319H34.405V60.1589ZM39.741 49.9746H53.081C54.6818 49.9746 55.749 50.9682 55.749 52.4586V53.2038C55.749 54.6941 54.6818 55.6877 53.081 55.6877H39.741V49.9746ZM39.741 45.5034V39.7902H52.0138C53.6146 39.7902 54.6818 40.7838 54.6818 42.2742V43.0194C54.6818 44.5098 53.6146 45.5034 52.0138 45.5034H39.741Z" fill="#264C51"/>
</svg>
