<svg width="48" height="12" viewBox="0 0 48 12" fill="none" xmlns="http://www.w3.org/2000/svg">
<g clip-path="url(#clip0)">
<path d="M-11 150.25C-4.48305 143.704 6.08306 143.704 12.6 150.25C19.117 156.796 29.6831 156.796 36.2 150.25C42.717 143.704 53.283 143.704 59.8 150.25C66.317 156.796 76.883 156.796 83.4 150.25C89.917 143.704 100.483 143.704 107 150.25C113.517 156.796 124.083 156.796 130.6 150.25C137.117 143.704 147.683 143.704 154.2 150.25C160.717 156.796 171.283 156.796 177.8 150.25C184.317 143.704 194.883 143.704 201.4 150.25C207.917 156.796 218.483 156.796 225 150.25M-11 162.278C-4.48303 155.732 6.08304 155.732 12.6 162.278C19.1169 168.824 29.6831 168.824 36.2 162.278C42.717 155.732 53.2831 155.732 59.8 162.278C66.317 168.824 76.8831 168.824 83.4 162.278C89.917 155.732 100.483 155.732 107 162.278C113.517 168.824 124.083 168.824 130.6 162.278C137.117 155.732 147.683 155.732 154.2 162.278C160.717 168.824 171.283 168.824 177.8 162.278C184.317 155.732 194.883 155.732 201.4 162.278C207.917 168.824 218.483 168.824 225 162.278M-11 174.307C-4.48303 167.761 6.08305 167.761 12.6 174.307C19.117 180.853 29.6831 180.853 36.2 174.307C42.717 167.761 53.2831 167.761 59.8 174.307C66.317 180.853 76.8831 180.853 83.4 174.307C89.917 167.761 100.483 167.761 107 174.307C113.517 180.853 124.083 180.853 130.6 174.307C137.117 167.761 147.683 167.761 154.2 174.307C160.717 180.853 171.283 180.853 177.8 174.307C184.317 167.761 194.883 167.761 201.4 174.307C207.917 180.853 218.483 180.853 225 174.307M-11 186.335C-4.48303 179.789 6.08304 179.789 12.6 186.335C19.117 192.881 29.6831 192.881 36.2 186.335C42.717 179.789 53.283 179.789 59.8 186.335C66.317 192.881 76.883 192.881 83.4 186.335C89.917 179.789 100.483 179.789 107 186.335C113.517 192.881 124.083 192.881 130.6 186.335C137.117 179.789 147.683 179.789 154.2 186.335C160.717 192.881 171.283 192.881 177.8 186.335C184.317 179.789 194.883 179.789 201.4 186.335C207.917 192.881 218.483 192.881 225 186.335M-11 198.363C-4.48302 191.817 6.08305 191.817 12.6 198.363C19.117 204.91 29.6831 204.91 36.2 198.363C42.717 191.817 53.2831 191.817 59.8 198.363C66.317 204.91 76.8831 204.91 83.4 198.363C89.917 191.817 100.483 191.817 107 198.363C113.517 204.91 124.083 204.91 130.6 198.363C137.117 191.817 147.683 191.817 154.2 198.363C160.717 204.91 171.283 204.91 177.8 198.363C184.317 191.817 194.883 191.817 201.4 198.363C207.917 204.91 218.483 204.91 225 198.363M-11 210.392C-4.48302 203.846 6.08305 203.846 12.6 210.392C19.117 216.938 29.6831 216.938 36.2 210.392C42.717 203.846 53.2831 203.846 59.8 210.392C66.317 216.938 76.8831 216.938 83.4 210.392C89.917 203.846 100.483 203.846 107 210.392C113.517 216.938 124.083 216.938 130.6 210.392C137.117 203.846 147.683 203.846 154.2 210.392C160.717 216.938 171.283 216.938 177.8 210.392C184.317 203.846 194.883 203.846 201.4 210.392C207.917 216.938 218.483 216.938 225 210.392M-11 222.42C-4.48303 215.874 6.08304 215.874 12.6 222.42C19.117 228.966 29.6831 228.966 36.2 222.42C42.717 215.874 53.283 215.874 59.8 222.42C66.317 228.966 76.8831 228.966 83.4 222.42C89.917 215.874 100.483 215.874 107 222.42C113.517 228.966 124.083 228.966 130.6 222.42C137.117 215.874 147.683 215.874 154.2 222.42C160.717 228.966 171.283 228.966 177.8 222.42C184.317 215.874 194.883 215.874 201.4 222.42C207.917 228.966 218.483 228.966 225 222.42M-11 78.0798C-4.48304 71.5338 6.08304 71.5338 12.6 78.0798C19.117 84.6259 29.683 84.6258 36.2 78.0798C42.717 71.5337 53.283 71.5337 59.8 78.0798C66.317 84.6258 76.883 84.6258 83.4 78.0798C89.917 71.5337 100.483 71.5337 107 78.0798C113.517 84.6258 124.083 84.6258 130.6 78.0798C137.117 71.5338 147.683 71.5337 154.2 78.0798C160.717 84.6258 171.283 84.6258 177.8 78.0797C184.317 71.5337 194.883 71.5337 201.4 78.0798C207.917 84.6258 218.483 84.6258 225 78.0798M-11 90.1081C-4.48304 83.5621 6.08303 83.5621 12.6 90.1081C19.117 96.6542 29.683 96.6542 36.2 90.1081C42.7169 83.5621 53.283 83.5621 59.8 90.1082C66.317 96.6542 76.883 96.6542 83.4 90.1081C89.917 83.5621 100.483 83.5621 107 90.1081C113.517 96.6542 124.083 96.6542 130.6 90.1082C137.117 83.5621 147.683 83.5621 154.2 90.1081C160.717 96.6542 171.283 96.6542 177.8 90.1081C184.317 83.5621 194.883 83.562 201.4 90.1081C207.917 96.6542 218.483 96.6542 225 90.1081M-11 102.136C-4.48304 95.5905 6.08303 95.5905 12.6 102.137C19.117 108.683 29.6831 108.683 36.2 102.137C42.717 95.5905 53.2831 95.5905 59.8 102.137C66.317 108.683 76.8831 108.683 83.4 102.137C89.917 95.5905 100.483 95.5905 107 102.137C113.517 108.683 124.083 108.683 130.6 102.137C137.117 95.5905 147.683 95.5904 154.2 102.136C160.717 108.683 171.283 108.683 177.8 102.136C184.317 95.5904 194.883 95.5904 201.4 102.136C207.917 108.683 218.483 108.683 225 102.136M-11 114.165C-4.48304 107.619 6.08306 107.619 12.6 114.165C19.117 120.711 29.6831 120.711 36.2 114.165C42.717 107.619 53.283 107.619 59.8 114.165C66.317 120.711 76.8831 120.711 83.4 114.165C89.917 107.619 100.483 107.619 107 114.165C113.517 120.711 124.083 120.711 130.6 114.165C137.117 107.619 147.683 107.619 154.2 114.165C160.717 120.711 171.283 120.711 177.8 114.165C184.317 107.619 194.883 107.619 201.4 114.165C207.917 120.711 218.483 120.711 225 114.165M-11 126.193C-4.48305 119.647 6.08305 119.647 12.6 126.193C19.117 132.739 29.6831 132.739 36.2 126.193C42.717 119.647 53.283 119.647 59.8 126.193C66.317 132.739 76.883 132.739 83.4 126.193C89.917 119.647 100.483 119.647 107 126.193C113.517 132.739 124.083 132.739 130.6 126.193C137.117 119.647 147.683 119.647 154.2 126.193C160.717 132.739 171.283 132.739 177.8 126.193C184.317 119.647 194.883 119.647 201.4 126.193C207.917 132.739 218.483 132.739 225 126.193M-11 138.222C-4.48305 131.676 6.08305 131.676 12.6 138.222C19.117 144.768 29.6831 144.768 36.2 138.222C42.717 131.676 53.283 131.676 59.8 138.222C66.317 144.768 76.883 144.768 83.4 138.222C89.917 131.676 100.483 131.676 107 138.222C113.517 144.768 124.083 144.768 130.6 138.222C137.117 131.676 147.683 131.676 154.2 138.222C160.717 144.768 171.283 144.768 177.8 138.222C184.317 131.676 194.883 131.676 201.4 138.222C207.917 144.768 218.483 144.768 225 138.222M-11 5.90957C-4.48303 -0.636467 6.08305 -0.636479 12.6 5.90954C19.117 12.4556 29.683 12.4556 36.2 5.90955C42.717 -0.636473 53.2831 -0.636489 59.8 5.90954C66.317 12.4556 76.883 12.4556 83.4 5.90955C89.917 -0.636483 100.483 -0.636479 107 5.90958C113.517 12.4556 124.083 12.4556 130.6 5.90959C137.117 -0.63647 147.683 -0.636498 154.2 5.90953C160.717 12.4556 171.283 12.4556 177.8 5.90952C184.317 -0.636504 194.883 -0.636511 201.4 5.90952C207.917 12.4556 218.483 12.4556 225 5.90953M-11 17.9379C-4.48305 11.3919 6.08303 11.3919 12.6 17.9379C19.117 24.484 29.683 24.484 36.2 17.9379C42.7169 11.3919 53.283 11.3919 59.8 17.9379C66.317 24.484 76.883 24.484 83.4 17.9379C89.9169 11.3919 100.483 11.3919 107 17.9379C113.517 24.484 124.083 24.484 130.6 17.9379C137.117 11.3919 147.683 11.3918 154.2 17.9379C160.717 24.4839 171.283 24.4839 177.8 17.9379C184.317 11.3918 194.883 11.3918 201.4 17.9379C207.917 24.4839 218.483 24.484 225 17.9379M-11 29.9663C-4.48305 23.4202 6.08305 23.4203 12.6 29.9663C19.117 36.5123 29.6831 36.5124 36.2 29.9663C42.717 23.4203 53.2831 23.4202 59.8 29.9663C66.317 36.5123 76.8831 36.5124 83.4 29.9663C89.917 23.4203 100.483 23.4203 107 29.9663C113.517 36.5123 124.083 36.5123 130.6 29.9663C137.117 23.4202 147.683 23.4202 154.2 29.9663C160.717 36.5123 171.283 36.5123 177.8 29.9663C184.317 23.4202 194.883 23.4202 201.4 29.9662C207.917 36.5123 218.483 36.5123 225 29.9662M-11 41.9947C-4.48304 35.4486 6.08304 35.4486 12.6 41.9947C19.117 48.5407 29.683 48.5407 36.2 41.9947C42.7169 35.4486 53.283 35.4486 59.8 41.9947C66.317 48.5407 76.883 48.5407 83.4 41.9947C89.917 35.4486 100.483 35.4486 107 41.9947C113.517 48.5407 124.083 48.5407 130.6 41.9947C137.117 35.4486 147.683 35.4486 154.2 41.9946C160.717 48.5407 171.283 48.5407 177.8 41.9946C184.317 35.4486 194.883 35.4486 201.4 41.9946C207.917 48.5407 218.483 48.5407 225 41.9946M-11 54.023C-4.48304 47.477 6.08304 47.477 12.6 54.023C19.117 60.5691 29.683 60.5691 36.2 54.023C42.717 47.477 53.283 47.477 59.8 54.023C66.317 60.5691 76.883 60.5691 83.4 54.023C89.9169 47.477 100.483 47.477 107 54.023C113.517 60.5691 124.083 60.5691 130.6 54.023C137.117 47.477 147.683 47.477 154.2 54.023C160.717 60.569 171.283 60.569 177.8 54.023C184.317 47.477 194.883 47.477 201.4 54.023C207.917 60.569 218.483 60.569 225 54.023M-11 66.0514C-4.48303 59.5053 6.08303 59.5053 12.6 66.0514C19.1169 72.5974 29.683 72.5974 36.2 66.0514C42.717 59.5054 53.2831 59.5054 59.8 66.0514C66.317 72.5974 76.883 72.5974 83.4 66.0514C89.917 59.5054 100.483 59.5054 107 66.0514C113.517 72.5974 124.083 72.5974 130.6 66.0514C137.117 59.5053 147.683 59.5053 154.2 66.0514C160.717 72.5974 171.283 72.5974 177.8 66.0514C184.317 59.5053 194.883 59.5053 201.4 66.0514C207.917 72.5974 218.483 72.5974 225 66.0514M-11 234.449C-4.48303 227.903 6.08306 227.903 12.6 234.449C19.117 240.995 29.6831 240.995 36.2 234.449C42.717 227.903 53.2831 227.903 59.8 234.449C66.317 240.995 76.8831 240.995 83.4 234.449C89.917 227.903 100.483 227.903 107 234.449C113.517 240.995 124.083 240.995 130.6 234.449C137.117 227.903 147.683 227.903 154.2 234.449C160.717 240.995 171.283 240.995 177.8 234.449C184.317 227.903 194.883 227.903 201.4 234.449C207.917 240.995 218.483 240.995 225 234.449M-11 246.477C-4.48302 239.931 6.08308 239.931 12.6 246.477C19.117 253.023 29.6831 253.023 36.2 246.477C42.717 239.931 53.2831 239.931 59.8 246.477C66.317 253.023 76.8831 253.023 83.4 246.477C89.9169 239.931 100.483 239.931 107 246.477C113.517 253.023 124.083 253.023 130.6 246.477C137.117 239.931 147.683 239.931 154.2 246.477C160.717 253.023 171.283 253.023 177.8 246.477C184.317 239.931 194.883 239.931 201.4 246.477C207.917 253.023 218.483 253.023 225 246.477M-11 258.505C-4.48302 251.959 6.08308 251.959 12.6 258.505C19.117 265.051 29.6831 265.051 36.2 258.505C42.717 251.959 53.2831 251.959 59.8 258.505C66.317 265.051 76.8831 265.051 83.4 258.505C89.917 251.959 100.483 251.959 107 258.505C113.517 265.051 124.083 265.051 130.6 258.505C137.117 251.959 147.683 251.959 154.2 258.505C160.717 265.051 171.283 265.051 177.8 258.505C184.317 251.959 194.883 251.959 201.4 258.505C207.917 265.051 218.483 265.051 225 258.505M-11 270.534C-4.48302 263.988 6.08308 263.988 12.6 270.534C19.117 277.08 29.6831 277.08 36.2 270.534C42.717 263.988 53.2831 263.988 59.8 270.534C66.317 277.08 76.8831 277.08 83.4 270.534C89.917 263.988 100.483 263.988 107 270.534C113.517 277.08 124.083 277.08 130.6 270.534C137.117 263.988 147.683 263.988 154.2 270.534C160.717 277.08 171.283 277.08 177.8 270.534C184.317 263.988 194.883 263.988 201.4 270.534C207.917 277.08 218.483 277.08 225 270.534M-11 282.562C-4.48302 276.016 6.08307 276.016 12.6 282.562C19.117 289.108 29.6831 289.108 36.2 282.562C42.717 276.016 53.2831 276.016 59.8 282.562C66.317 289.108 76.8831 289.108 83.4 282.562C89.917 276.016 100.483 276.016 107 282.562C113.517 289.108 124.083 289.108 130.6 282.562C137.117 276.016 147.683 276.016 154.2 282.562C160.717 289.108 171.283 289.108 177.8 282.562C184.317 276.016 194.883 276.016 201.4 282.562C207.917 289.108 218.483 289.108 225 282.562M-11 294.59C-4.48302 288.044 6.08307 288.044 12.6 294.59C19.117 301.137 29.6831 301.136 36.2 294.59C42.717 288.044 53.2831 288.044 59.8 294.59C66.317 301.137 76.8831 301.137 83.4 294.59C89.917 288.044 100.483 288.044 107 294.59C113.517 301.137 124.083 301.136 130.6 294.59C137.117 288.044 147.683 288.044 154.2 294.59C160.717 301.136 171.283 301.136 177.8 294.59C184.317 288.044 194.883 288.044 201.4 294.59C207.917 301.136 218.483 301.136 225 294.59" stroke="#B85B24" stroke-width="2"/>
</g>
<defs>
<clipPath id="clip0">
<path d="M0 0H48V12H0V0Z" fill="white"/>
</clipPath>
</defs>
</svg>
